<?xml version="1.0" standalone="no"?>
<!DOCTYPE svg PUBLIC "-//W3C//DTD SVG 20010904//EN"
 "http://www.w3.org/TR/2001/REC-SVG-20010904/DTD/svg10.dtd">
<svg version="1.0" xmlns="http://www.w3.org/2000/svg"
 width="778.000000pt" height="778.000000pt" viewBox="0 0 778.000000 778.000000"
 preserveAspectRatio="xMidYMid meet">
<metadata>
Created by potrace 1.14, written by Peter Selinger 2001-2017
</metadata>
<g transform="translate(0.000000,778.000000) scale(0.100000,-0.100000)"
fill="#000000" stroke="none">
<path d="M2087 5890 c-17 -7 -17 -1088 0 -1098 6 -4 551 -7 1210 -6 659 0
1203 -2 1208 -5 6 -3 19 -7 30 -8 11 -2 22 -8 23 -13 2 -6 8 -10 14 -10 16 0
53 -43 67 -78 18 -42 16 -106 -3 -147 -19 -40 -79 -95 -106 -96 -32 -2 -38 -4
-45 -11 -4 -4 -17 -3 -29 2 -13 4 -29 5 -36 0 -7 -4 -19 -6 -25 -4 -18 7 -105
10 -105 4 0 -3 -17 -4 -37 -2 -47 4 -96 3 -101 -2 -2 -2 -16 0 -32 4 -16 4
-31 6 -34 2 -9 -9 -56 -9 -56 1 0 4 -8 3 -18 -2 -11 -6 -24 -6 -34 0 -9 5 -19
6 -22 1 -3 -5 -20 -7 -38 -5 -55 6 -139 5 -145 -1 -3 -3 -14 -1 -24 5 -11 5
-19 6 -19 2 0 -4 -22 -8 -50 -8 -27 0 -50 3 -50 7 0 4 -10 4 -23 -1 -14 -5
-30 -5 -40 0 -9 6 -17 6 -17 2 0 -4 -30 -8 -68 -9 -37 0 -92 -4 -122 -8 -30
-4 -67 -8 -82 -9 -16 -1 -28 -4 -28 -7 0 -3 -9 -6 -21 -7 -11 -1 -53 -12 -92
-24 -40 -12 -78 -22 -84 -22 -7 0 -13 -4 -13 -9 0 -4 -3 -7 -7 -6 -5 1 -19 -4
-33 -12 -14 -7 -26 -13 -27 -12 -11 7 -256 -126 -273 -148 -3 -4 -13 -11 -22
-16 -42 -23 -219 -190 -273 -259 -91 -114 -200 -303 -231 -400 -2 -5 -15 -43
-29 -84 -14 -41 -27 -86 -30 -99 -2 -14 -9 -48 -14 -76 -5 -28 -13 -76 -17
-106 -9 -78 -11 -1261 -1 -1267 10 -6 1088 -5 1094 1 8 8 9 206 1 206 -4 0 -5
7 -1 15 10 28 9 625 -2 625 -7 0 -7 3 0 8 6 4 10 21 10 37 0 17 -4 33 -10 37
-7 5 -7 8 0 8 6 0 11 45 12 113 1 101 6 157 13 165 1 1 3 5 5 10 22 76 103
165 190 208 51 25 74 29 161 32 l101 4 13 -31 c7 -17 17 -31 22 -31 5 0 6 -4
3 -10 -3 -5 -1 -10 4 -10 6 0 11 -7 11 -15 0 -8 5 -15 10 -15 6 0 10 -4 10 -9
0 -5 23 -48 50 -96 28 -48 50 -89 50 -91 0 -3 12 -21 26 -40 15 -19 23 -34 19
-34 -3 0 1 -7 9 -16 9 -8 14 -19 11 -24 -3 -4 2 -11 11 -14 8 -3 12 -10 9 -16
-3 -5 -1 -10 4 -10 6 0 11 -7 11 -15 0 -8 5 -15 10 -15 6 0 10 -5 10 -10 0
-13 121 -223 133 -231 5 -3 8 -9 8 -13 -1 -8 47 -96 87 -157 17 -28 32 -57 32
-65 0 -8 4 -14 8 -14 4 0 18 -19 30 -43 12 -23 36 -64 52 -92 16 -27 33 -59
39 -70 6 -11 23 -38 37 -60 13 -22 27 -48 31 -57 3 -10 10 -18 15 -18 5 0 7
-4 3 -9 -3 -5 -1 -12 4 -16 6 -3 25 -32 43 -65 l33 -60 95 0 c52 0 294 -1 538
-3 243 -1 442 -1 442 -1 0 6 -68 131 -100 184 -22 36 -54 90 -70 120 -67 121
-94 165 -102 168 -4 2 -6 8 -2 13 3 5 2 9 -3 9 -4 0 -14 15 -22 32 -8 18 -17
35 -20 38 -3 3 -11 14 -17 25 -54 100 -78 141 -84 145 -3 3 -13 21 -22 40 -9
19 -28 52 -42 73 -14 21 -26 43 -26 49 0 6 -6 19 -14 27 -8 9 -24 34 -36 56
-12 22 -56 97 -96 167 -41 69 -74 131 -74 137 0 6 -3 11 -8 11 -4 0 -25 33
-46 73 -20 39 -46 86 -56 103 l-18 32 39 6 c21 3 41 6 44 6 3 0 19 7 35 15 16
8 31 15 32 14 9 -3 66 16 83 27 11 8 27 14 36 14 9 0 22 7 29 15 7 8 18 15 26
15 12 0 133 66 144 79 3 3 25 19 50 36 60 39 227 207 270 270 18 28 37 52 40
55 4 3 13 19 22 35 33 65 53 100 61 103 4 2 7 10 7 18 0 8 10 34 22 57 12 23
23 44 23 47 1 3 9 32 19 65 10 33 20 71 22 85 3 14 7 32 10 40 3 8 8 33 10 55
3 22 7 56 10 75 18 138 -6 375 -55 527 -25 77 -61 167 -70 173 -7 6 -34 63
-31 69 1 2 -2 7 -7 10 -13 9 -63 89 -63 101 0 5 -4 10 -8 10 -5 0 -22 19 -39
43 -52 71 -197 211 -252 241 -9 5 -18 12 -21 15 -29 35 -284 162 -354 176 -10
3 -43 11 -73 20 -29 9 -73 17 -97 19 -24 2 -48 6 -52 8 -5 3 -34 6 -64 8 -99
5 -2470 5 -2483 0z m849 -371 c6 7 69 5 87 -2 10 -4 17 -2 17 3 0 5 12 5 29 0
16 -4 32 -6 35 -3 8 8 232 6 245 -2 6 -3 11 -3 11 2 0 7 64 9 80 3 3 -2 9 -2
14 -1 10 2 447 2 461 0 6 -1 15 0 20 1 12 3 116 2 130 0 6 -1 15 -1 20 0 24 5
215 1 224 -4 5 -4 12 -3 14 1 4 7 62 9 77 3 3 -1 10 -1 15 0 14 3 134 -1 165
-5 122 -19 192 -40 295 -89 50 -25 104 -56 120 -70 17 -14 33 -26 37 -26 8 0
129 -120 168 -167 62 -74 170 -299 152 -317 -3 -3 0 -6 5 -6 6 0 10 -8 8 -17
-1 -10 0 -22 3 -28 8 -12 12 -45 15 -107 1 -27 5 -48 9 -48 3 0 4 -8 2 -17 -2
-10 -6 -49 -8 -88 -2 -38 -7 -82 -10 -97 -3 -16 -8 -38 -10 -50 -15 -84 -90
-243 -158 -335 -42 -57 -125 -143 -139 -143 -5 0 -9 -8 -9 -17 0 -9 -3 -14 -6
-10 -3 3 -18 -5 -32 -19 -15 -13 -32 -24 -39 -24 -7 0 -13 -4 -13 -9 0 -20
-211 -109 -301 -126 -13 -3 -37 -8 -54 -11 -16 -4 -131 -8 -255 -8 -124 -1
-231 -5 -238 -10 -6 -4 -12 -4 -12 1 0 9 -214 8 -229 -2 -6 -3 -11 -2 -11 2 0
10 -346 9 -415 -2 -27 -4 -57 -8 -65 -9 -8 -1 -33 -9 -55 -16 -22 -8 -42 -15
-45 -15 -3 -1 -18 -7 -35 -14 -16 -7 -32 -13 -35 -13 -11 -1 -150 -101 -177
-127 -15 -15 -44 -47 -63 -70 -19 -24 -41 -49 -47 -56 -7 -8 -13 -21 -13 -29
0 -9 -4 -16 -8 -16 -11 0 -44 -76 -73 -165 -22 -67 -23 -86 -26 -495 -2 -234
-5 -429 -7 -435 -3 -8 -205 -12 -341 -6 -20 1 -21 5 -18 419 2 392 4 445 18
515 3 15 7 37 9 50 7 32 14 62 16 65 2 1 4 7 5 12 1 6 4 12 5 15 1 3 3 8 5 13
13 47 112 245 135 270 11 12 20 26 20 31 0 12 186 200 219 221 13 8 29 20 35
25 72 64 273 152 409 179 15 4 39 9 55 13 15 3 198 8 407 10 696 6 840 10 840
23 0 1 7 3 16 5 31 6 134 59 150 77 9 10 20 18 25 18 12 0 104 96 104 108 0 6
3 12 8 14 14 6 60 103 77 163 21 71 23 199 5 275 -22 93 -70 179 -140 251 -65
67 -130 117 -130 102 0 -4 -4 -3 -8 2 -10 15 -67 40 -114 51 -5 1 -9 2 -10 4
-14 10 -180 12 -1098 15 -580 1 -1057 3 -1060 4 -3 0 -5 82 -5 182 l0 180 23
-4 c12 -2 24 -2 26 2 2 3 102 4 221 1 119 -3 219 -3 221 -1z m1450 -2231 c1
-10 9 -24 17 -33 9 -8 19 -25 23 -38 4 -12 10 -24 13 -27 10 -7 100 -165 111
-195 5 -14 14 -25 20 -25 5 0 10 -9 10 -19 0 -11 4 -21 8 -23 4 -1 29 -41 56
-88 27 -47 56 -98 66 -115 10 -16 34 -59 55 -95 21 -36 48 -83 62 -105 13 -22
26 -48 30 -57 3 -10 10 -18 15 -18 5 0 7 -4 4 -8 -3 -5 4 -18 14 -30 11 -12
20 -28 20 -37 0 -8 3 -15 8 -15 4 0 23 -30 42 -68 19 -37 40 -70 45 -74 13
-10 15 -9 -183 -11 -121 -2 -166 1 -174 11 -6 6 -7 12 -2 12 5 0 4 4 -2 8 -13
8 -234 389 -234 403 0 5 -4 9 -9 9 -5 0 -11 8 -14 18 -4 9 -17 35 -30 57 -14
22 -55 94 -93 160 -38 66 -72 122 -76 123 -4 2 -8 12 -8 22 0 10 -7 21 -16 24
-9 4 -14 9 -11 13 4 3 -2 18 -13 33 -11 16 -20 33 -20 39 0 5 -7 14 -16 19 -9
5 -16 13 -16 18 -1 11 -21 57 -28 64 -3 3 -13 20 -23 38 l-18 32 182 -2 c164
-3 182 -5 185 -20z"/>
</g>
</svg>
